<?xml version="1.0" encoding="utf-8"?>
<!-- Generator: Adobe Illustrator 16.0.0, SVG Export Plug-In . SVG Version: 6.00 Build 0)  -->
<!DOCTYPE svg PUBLIC "-//W3C//DTD SVG 1.1//EN" "http://www.w3.org/Graphics/SVG/1.1/DTD/svg11.dtd">
<svg version="1.1" id="Layer_1" xmlns="http://www.w3.org/2000/svg" xmlns:xlink="http://www.w3.org/1999/xlink" x="0px" y="0px"
	 width="35.574px" height="10.08px" viewBox="0 0 35.574 10.08" enable-background="new 0 0 35.574 10.08" xml:space="preserve">
<g id="Logo_1_">
	<g id="Task">
		<text transform="matrix(0.9797 0 0 1 6 7.5557)" fill="#FFFFFF" font-family="'Helvetica'" font-size="7.02">Task</text>
	</g>
	<g id="View">
		<text transform="matrix(0.9797 0 0 1 19.9331 7.542)" fill="#D01921" font-family="'Helvetica-Bold'" font-size="7.02">View</text>
	</g>
	<g id="Ellipse_2">
		<g>
			<circle fill="none" stroke="#FFFFFF" stroke-width="0.25" stroke-miterlimit="10" cx="3.028" cy="5.031" r="1.72"/>
		</g>
	</g>
	<path fill="#D01921" d="M3.028,2.039c0.088,0,0.175,0.003,0.26,0.011C3.373,2.057,3.46,2.069,3.547,2.084
		C4.36,2.227,5.04,2.686,5.479,3.313c0.438,0.627,0.64,1.421,0.496,2.235C5.833,6.364,5.373,7.043,4.746,7.481
		c-0.627,0.438-1.421,0.64-2.233,0.498C1.696,7.834,1.017,7.376,0.578,6.748C0.14,6.122-0.062,5.327,0.081,4.513
		C0.115,4.324,0.166,4.139,0.234,3.96C0.303,3.781,0.389,3.608,0.49,3.446l0.686,0.427c-0.073,0.12-0.137,0.246-0.188,0.375
		c-0.05,0.13-0.087,0.266-0.111,0.403C0.773,5.247,0.918,5.827,1.24,6.285c0.32,0.458,0.815,0.793,1.408,0.897
		C3.243,7.287,3.824,7.14,4.282,6.819C4.74,6.498,5.076,6.004,5.18,5.411c0.104-0.595-0.042-1.176-0.363-1.633
		C4.496,3.32,4.001,2.983,3.408,2.88C3.346,2.868,3.283,2.861,3.219,2.855C3.154,2.849,3.09,2.847,3.027,2.847L3.028,2.039z"/>
</g>
</svg>
